<?xml version="1.0" standalone="no"?>
<!DOCTYPE svg PUBLIC "-//W3C//DTD SVG 20010904//EN"
 "http://www.w3.org/TR/2001/REC-SVG-20010904/DTD/svg10.dtd">
<svg version="1.0" xmlns="http://www.w3.org/2000/svg"
 width="512.000000pt" height="512.000000pt" viewBox="0 0 512.000000 512.000000"
 preserveAspectRatio="xMidYMid meet">

<g transform="translate(0.000000,512.000000) scale(0.100000,-0.100000)"
fill="#000000" stroke="none">
<path d="M2345 5109 c-788 -82 -1467 -630 -1714 -1384 -290 -888 61 -1926
1018 -3010 241 -273 602 -614 704 -665 153 -76 334 -61 468 40 150 113 482
442 704 700 756 875 1120 1749 1045 2501 -48 471 -251 900 -585 1234 -432 432
-1035 647 -1640 584z m608 -1075 c177 -46 324 -169 401 -336 106 -228 56 -497
-127 -681 -18 -18 -17 -20 17 -57 181 -201 217 -480 90 -709 -53 -94 -160
-197 -255 -244 -131 -64 -169 -68 -628 -65 l-406 3 -56 28 c-74 36 -140 108
-168 180 -21 57 -21 64 -21 842 0 863 -2 830 62 922 31 47 98 97 156 118 59
22 851 21 935 -1z"/>
<path d="M2107 3743 c-4 -3 -7 -138 -7 -300 l0 -293 388 0 387 0 60 28 c64 31
111 77 147 145 33 60 33 194 0 254 -36 68 -83 114 -147 145 l-60 28 -381 0
c-209 0 -384 -3 -387 -7z"/>
<path d="M2102 2548 l3 -303 390 0 c380 0 391 1 437 22 26 12 68 42 92 68 146
149 98 393 -94 484 l-55 26 -388 3 -387 3 2 -303z"/>
</g>
</svg>
